<?xml version="1.0" encoding="UTF-8" standalone="no"?>
<!DOCTYPE svg PUBLIC "-//W3C//DTD SVG 1.1//EN"
 "http://www.w3.org/Graphics/SVG/1.1/DTD/svg11.dtd">
<!-- Generated by graphviz version 2.40.1 (20161225.0304)
 -->
<!-- Title: Tree Pages: 1 -->
<svg width="868pt" height="642pt"
 viewBox="0.00 0.00 867.83 642.00" xmlns="http://www.w3.org/2000/svg" xmlns:xlink="http://www.w3.org/1999/xlink">
<g id="graph0" class="graph" transform="scale(1 1) rotate(0) translate(4 638)">
<title>Tree</title>
<polygon fill="#ffffff" stroke="transparent" points="-4,4 -4,-638 863.8306,-638 863.8306,4 -4,4"/>
<!-- 0 -->
<g id="node1" class="node">
<title>0</title>
<path fill="#ffffff" stroke="#000000" d="M516.6091,-634C516.6091,-634 391.1458,-634 391.1458,-634 385.1458,-634 379.1458,-628 379.1458,-622 379.1458,-622 379.1458,-568 379.1458,-568 379.1458,-562 385.1458,-556 391.1458,-556 391.1458,-556 516.6091,-556 516.6091,-556 522.6091,-556 528.6091,-562 528.6091,-568 528.6091,-568 528.6091,-622 528.6091,-622 528.6091,-628 522.6091,-634 516.6091,-634"/>
<text text-anchor="start" x="387.0117" y="-618.8" font-family="Helvetica,sans-Serif" font-size="14.00" fill="#000000">petal width (cm) ≤ 0.8</text>
<text text-anchor="start" x="417.4863" y="-604.8" font-family="Helvetica,sans-Serif" font-size="14.00" fill="#000000">gini = 0.667</text>
<text text-anchor="start" x="408.1553" y="-590.8" font-family="Helvetica,sans-Serif" font-size="14.00" fill="#000000">samples = 150</text>
<text text-anchor="start" x="394.1382" y="-576.8" font-family="Helvetica,sans-Serif" font-size="14.00" fill="#000000">value = [50, 50, 50]</text>
<text text-anchor="start" x="409.3276" y="-562.8" font-family="Helvetica,sans-Serif" font-size="14.00" fill="#000000">class = setosa</text>
</g>
<!-- 1 -->
<g id="node2" class="node">
<title>1</title>
<path fill="#e58139" stroke="#000000" d="M423.7837,-513C423.7837,-513 327.9712,-513 327.9712,-513 321.9712,-513 315.9712,-507 315.9712,-501 315.9712,-501 315.9712,-461 315.9712,-461 315.9712,-455 321.9712,-449 327.9712,-449 327.9712,-449 423.7837,-449 423.7837,-449 429.7837,-449 435.7837,-455 435.7837,-461 435.7837,-461 435.7837,-501 435.7837,-501 435.7837,-507 429.7837,-513 423.7837,-513"/>
<text text-anchor="start" x="347.2725" y="-497.8" font-family="Helvetica,sans-Serif" font-size="14.00" fill="#000000">gini = 0.0</text>
<text text-anchor="start" x="334.0483" y="-483.8" font-family="Helvetica,sans-Serif" font-size="14.00" fill="#000000">samples = 50</text>
<text text-anchor="start" x="323.9243" y="-469.8" font-family="Helvetica,sans-Serif" font-size="14.00" fill="#000000">value = [50, 0, 0]</text>
<text text-anchor="start" x="331.3276" y="-455.8" font-family="Helvetica,sans-Serif" font-size="14.00" fill="#000000">class = setosa</text>
</g>
<!-- 0&#45;&gt;1 -->
<g id="edge1" class="edge">
<title>0&#45;&gt;1</title>
<path fill="none" stroke="#000000" d="M427.0343,-555.7677C419.4491,-544.6817 411.1823,-532.5994 403.5494,-521.4436"/>
<polygon fill="#000000" stroke="#000000" points="406.3933,-519.4019 397.8578,-513.1252 400.6161,-523.3547 406.3933,-519.4019"/>
<text text-anchor="middle" x="393.2506" y="-533.497" font-family="Helvetica,sans-Serif" font-size="14.00" fill="#000000">True</text>
</g>
<!-- 2 -->
<g id="node3" class="node">
<title>2</title>
<path fill="#ffffff" stroke="#000000" d="M599.3958,-520C599.3958,-520 466.3591,-520 466.3591,-520 460.3591,-520 454.3591,-514 454.3591,-508 454.3591,-508 454.3591,-454 454.3591,-454 454.3591,-448 460.3591,-442 466.3591,-442 466.3591,-442 599.3958,-442 599.3958,-442 605.3958,-442 611.3958,-448 611.3958,-454 611.3958,-454 611.3958,-508 611.3958,-508 611.3958,-514 605.3958,-520 599.3958,-520"/>
<text text-anchor="start" x="462.1187" y="-504.8" font-family="Helvetica,sans-Serif" font-size="14.00" fill="#000000">petal width (cm) ≤ 1.75</text>
<text text-anchor="start" x="504.2725" y="-490.8" font-family="Helvetica,sans-Serif" font-size="14.00" fill="#000000">gini = 0.5</text>
<text text-anchor="start" x="487.1553" y="-476.8" font-family="Helvetica,sans-Serif" font-size="14.00" fill="#000000">samples = 100</text>
<text text-anchor="start" x="477.0313" y="-462.8" font-family="Helvetica,sans-Serif" font-size="14.00" fill="#000000">value = [0, 50, 50]</text>
<text text-anchor="start" x="479" y="-448.8" font-family="Helvetica,sans-Serif" font-size="14.00" fill="#000000">class = versicolor</text>
</g>
<!-- 0&#45;&gt;2 -->
<g id="edge2" class="edge">
<title>0&#45;&gt;2</title>
<path fill="none" stroke="#000000" d="M481.0648,-555.7677C487.0853,-547.0798 493.5298,-537.7801 499.7571,-528.794"/>
<polygon fill="#000000" stroke="#000000" points="502.8209,-530.5176 505.64,-520.3046 497.0673,-526.5304 502.8209,-530.5176"/>
<text text-anchor="middle" x="510.1009" y="-540.7034" font-family="Helvetica,sans-Serif" font-size="14.00" fill="#000000">False</text>
</g>
<!-- 3 -->
<g id="node4" class="node">
<title>3</title>
<path fill="#4de88e" stroke="#000000" d="M489.3569,-406C489.3569,-406 350.3979,-406 350.3979,-406 344.3979,-406 338.3979,-400 338.3979,-394 338.3979,-394 338.3979,-340 338.3979,-340 338.3979,-334 344.3979,-328 350.3979,-328 350.3979,-328 489.3569,-328 489.3569,-328 495.3569,-328 501.3569,-334 501.3569,-340 501.3569,-340 501.3569,-394 501.3569,-394 501.3569,-400 495.3569,-406 489.3569,-406"/>
<text text-anchor="start" x="346.3877" y="-390.8" font-family="Helvetica,sans-Serif" font-size="14.00" fill="#000000">petal length (cm) ≤ 4.95</text>
<text text-anchor="start" x="383.4863" y="-376.8" font-family="Helvetica,sans-Serif" font-size="14.00" fill="#000000">gini = 0.168</text>
<text text-anchor="start" x="378.0483" y="-362.8" font-family="Helvetica,sans-Serif" font-size="14.00" fill="#000000">samples = 54</text>
<text text-anchor="start" x="367.9243" y="-348.8" font-family="Helvetica,sans-Serif" font-size="14.00" fill="#000000">value = [0, 49, 5]</text>
<text text-anchor="start" x="366" y="-334.8" font-family="Helvetica,sans-Serif" font-size="14.00" fill="#000000">class = versicolor</text>
</g>
<!-- 2&#45;&gt;3 -->
<g id="edge3" class="edge">
<title>2&#45;&gt;3</title>
<path fill="none" stroke="#000000" d="M493.9893,-441.7677C484.9337,-432.632 475.2076,-422.8198 465.8773,-413.407"/>
<polygon fill="#000000" stroke="#000000" points="468.363,-410.9429 458.8373,-406.3046 463.3914,-415.8708 468.363,-410.9429"/>
</g>
<!-- 12 -->
<g id="node13" class="node">
<title>12</title>
<path fill="#843de6" stroke="#000000" d="M715.3569,-406C715.3569,-406 576.3979,-406 576.3979,-406 570.3979,-406 564.3979,-400 564.3979,-394 564.3979,-394 564.3979,-340 564.3979,-340 564.3979,-334 570.3979,-328 576.3979,-328 576.3979,-328 715.3569,-328 715.3569,-328 721.3569,-328 727.3569,-334 727.3569,-340 727.3569,-340 727.3569,-394 727.3569,-394 727.3569,-400 721.3569,-406 715.3569,-406"/>
<text text-anchor="start" x="572.3877" y="-390.8" font-family="Helvetica,sans-Serif" font-size="14.00" fill="#000000">petal length (cm) ≤ 4.85</text>
<text text-anchor="start" x="609.4863" y="-376.8" font-family="Helvetica,sans-Serif" font-size="14.00" fill="#000000">gini = 0.043</text>
<text text-anchor="start" x="604.0483" y="-362.8" font-family="Helvetica,sans-Serif" font-size="14.00" fill="#000000">samples = 46</text>
<text text-anchor="start" x="593.9243" y="-348.8" font-family="Helvetica,sans-Serif" font-size="14.00" fill="#000000">value = [0, 1, 45]</text>
<text text-anchor="start" x="596.2759" y="-334.8" font-family="Helvetica,sans-Serif" font-size="14.00" fill="#000000">class = virginica</text>
</g>
<!-- 2&#45;&gt;12 -->
<g id="edge12" class="edge">
<title>2&#45;&gt;12</title>
<path fill="none" stroke="#000000" d="M571.7656,-441.7677C580.8212,-432.632 590.5473,-422.8198 599.8775,-413.407"/>
<polygon fill="#000000" stroke="#000000" points="602.3635,-415.8708 606.9176,-406.3046 597.3919,-410.9429 602.3635,-415.8708"/>
</g>
<!-- 4 -->
<g id="node5" class="node">
<title>4</title>
<path fill="#3de684" stroke="#000000" d="M265.3958,-292C265.3958,-292 132.3591,-292 132.3591,-292 126.3591,-292 120.3591,-286 120.3591,-280 120.3591,-280 120.3591,-226 120.3591,-226 120.3591,-220 126.3591,-214 132.3591,-214 132.3591,-214 265.3958,-214 265.3958,-214 271.3958,-214 277.3958,-220 277.3958,-226 277.3958,-226 277.3958,-280 277.3958,-280 277.3958,-286 271.3958,-292 265.3958,-292"/>
<text text-anchor="start" x="128.1187" y="-276.8" font-family="Helvetica,sans-Serif" font-size="14.00" fill="#000000">petal width (cm) ≤ 1.65</text>
<text text-anchor="start" x="162.4863" y="-262.8" font-family="Helvetica,sans-Serif" font-size="14.00" fill="#000000">gini = 0.041</text>
<text text-anchor="start" x="157.0483" y="-248.8" font-family="Helvetica,sans-Serif" font-size="14.00" fill="#000000">samples = 48</text>
<text text-anchor="start" x="146.9243" y="-234.8" font-family="Helvetica,sans-Serif" font-size="14.00" fill="#000000">value = [0, 47, 1]</text>
<text text-anchor="start" x="145" y="-220.8" font-family="Helvetica,sans-Serif" font-size="14.00" fill="#000000">class = versicolor</text>
</g>
<!-- 3&#45;&gt;4 -->
<g id="edge4" class="edge">
<title>3&#45;&gt;4</title>
<path fill="none" stroke="#000000" d="M344.131,-327.9272C324.6269,-317.8662 303.5145,-306.9757 283.5872,-296.6965"/>
<polygon fill="#000000" stroke="#000000" points="285.0168,-293.4957 274.5249,-292.0218 281.8077,-299.7168 285.0168,-293.4957"/>
</g>
<!-- 7 -->
<g id="node8" class="node">
<title>7</title>
<path fill="#c09cf2" stroke="#000000" d="M486.3958,-292C486.3958,-292 353.3591,-292 353.3591,-292 347.3591,-292 341.3591,-286 341.3591,-280 341.3591,-280 341.3591,-226 341.3591,-226 341.3591,-220 347.3591,-214 353.3591,-214 353.3591,-214 486.3958,-214 486.3958,-214 492.3958,-214 498.3958,-220 498.3958,-226 498.3958,-226 498.3958,-280 498.3958,-280 498.3958,-286 492.3958,-292 486.3958,-292"/>
<text text-anchor="start" x="349.1187" y="-276.8" font-family="Helvetica,sans-Serif" font-size="14.00" fill="#000000">petal width (cm) ≤ 1.55</text>
<text text-anchor="start" x="383.4863" y="-262.8" font-family="Helvetica,sans-Serif" font-size="14.00" fill="#000000">gini = 0.444</text>
<text text-anchor="start" x="381.9414" y="-248.8" font-family="Helvetica,sans-Serif" font-size="14.00" fill="#000000">samples = 6</text>
<text text-anchor="start" x="371.8174" y="-234.8" font-family="Helvetica,sans-Serif" font-size="14.00" fill="#000000">value = [0, 2, 4]</text>
<text text-anchor="start" x="370.2759" y="-220.8" font-family="Helvetica,sans-Serif" font-size="14.00" fill="#000000">class = virginica</text>
</g>
<!-- 3&#45;&gt;7 -->
<g id="edge7" class="edge">
<title>3&#45;&gt;7</title>
<path fill="none" stroke="#000000" d="M419.8774,-327.7677C419.8774,-319.6172 419.8774,-310.9283 419.8774,-302.4649"/>
<polygon fill="#000000" stroke="#000000" points="423.3775,-302.3046 419.8774,-292.3046 416.3775,-302.3047 423.3775,-302.3046"/>
</g>
<!-- 5 -->
<g id="node6" class="node">
<title>5</title>
<path fill="#39e581" stroke="#000000" d="M111.6326,-171C111.6326,-171 12.1223,-171 12.1223,-171 6.1223,-171 .1223,-165 .1223,-159 .1223,-159 .1223,-119 .1223,-119 .1223,-113 6.1223,-107 12.1223,-107 12.1223,-107 111.6326,-107 111.6326,-107 117.6326,-107 123.6326,-113 123.6326,-119 123.6326,-119 123.6326,-159 123.6326,-159 123.6326,-165 117.6326,-171 111.6326,-171"/>
<text text-anchor="start" x="33.2725" y="-155.8" font-family="Helvetica,sans-Serif" font-size="14.00" fill="#000000">gini = 0.0</text>
<text text-anchor="start" x="20.0483" y="-141.8" font-family="Helvetica,sans-Serif" font-size="14.00" fill="#000000">samples = 47</text>
<text text-anchor="start" x="9.9243" y="-127.8" font-family="Helvetica,sans-Serif" font-size="14.00" fill="#000000">value = [0, 47, 0]</text>
<text text-anchor="start" x="8" y="-113.8" font-family="Helvetica,sans-Serif" font-size="14.00" fill="#000000">class = versicolor</text>
</g>
<!-- 4&#45;&gt;5 -->
<g id="edge5" class="edge">
<title>4&#45;&gt;5</title>
<path fill="none" stroke="#000000" d="M151.7298,-213.7677C137.7541,-202.1383 122.4609,-189.4125 108.5175,-177.81"/>
<polygon fill="#000000" stroke="#000000" points="110.4096,-174.8312 100.484,-171.1252 105.9321,-180.2119 110.4096,-174.8312"/>
</g>
<!-- 6 -->
<g id="node7" class="node">
<title>6</title>
<path fill="#8139e5" stroke="#000000" d="M244.5807,-171C244.5807,-171 153.1741,-171 153.1741,-171 147.1741,-171 141.1741,-165 141.1741,-159 141.1741,-159 141.1741,-119 141.1741,-119 141.1741,-113 147.1741,-107 153.1741,-107 153.1741,-107 244.5807,-107 244.5807,-107 250.5807,-107 256.5807,-113 256.5807,-119 256.5807,-119 256.5807,-159 256.5807,-159 256.5807,-165 250.5807,-171 244.5807,-171"/>
<text text-anchor="start" x="170.2725" y="-155.8" font-family="Helvetica,sans-Serif" font-size="14.00" fill="#000000">gini = 0.0</text>
<text text-anchor="start" x="160.9414" y="-141.8" font-family="Helvetica,sans-Serif" font-size="14.00" fill="#000000">samples = 1</text>
<text text-anchor="start" x="150.8174" y="-127.8" font-family="Helvetica,sans-Serif" font-size="14.00" fill="#000000">value = [0, 0, 1]</text>
<text text-anchor="start" x="149.2759" y="-113.8" font-family="Helvetica,sans-Serif" font-size="14.00" fill="#000000">class = virginica</text>
</g>
<!-- 4&#45;&gt;6 -->
<g id="edge6" class="edge">
<title>4&#45;&gt;6</title>
<path fill="none" stroke="#000000" d="M198.8774,-213.7677C198.8774,-203.3338 198.8774,-192.0174 198.8774,-181.4215"/>
<polygon fill="#000000" stroke="#000000" points="202.3775,-181.1252 198.8774,-171.1252 195.3775,-181.1252 202.3775,-181.1252"/>
</g>
<!-- 8 -->
<g id="node9" class="node">
<title>8</title>
<path fill="#8139e5" stroke="#000000" d="M377.5807,-171C377.5807,-171 286.1741,-171 286.1741,-171 280.1741,-171 274.1741,-165 274.1741,-159 274.1741,-159 274.1741,-119 274.1741,-119 274.1741,-113 280.1741,-107 286.1741,-107 286.1741,-107 377.5807,-107 377.5807,-107 383.5807,-107 389.5807,-113 389.5807,-119 389.5807,-119 389.5807,-159 389.5807,-159 389.5807,-165 383.5807,-171 377.5807,-171"/>
<text text-anchor="start" x="303.2725" y="-155.8" font-family="Helvetica,sans-Serif" font-size="14.00" fill="#000000">gini = 0.0</text>
<text text-anchor="start" x="293.9414" y="-141.8" font-family="Helvetica,sans-Serif" font-size="14.00" fill="#000000">samples = 3</text>
<text text-anchor="start" x="283.8174" y="-127.8" font-family="Helvetica,sans-Serif" font-size="14.00" fill="#000000">value = [0, 0, 3]</text>
<text text-anchor="start" x="282.2759" y="-113.8" font-family="Helvetica,sans-Serif" font-size="14.00" fill="#000000">class = virginica</text>
</g>
<!-- 7&#45;&gt;8 -->
<g id="edge8" class="edge">
<title>7&#45;&gt;8</title>
<path fill="none" stroke="#000000" d="M389.5928,-213.7677C380.9513,-202.573 371.5256,-190.3624 362.844,-179.1158"/>
<polygon fill="#000000" stroke="#000000" points="365.557,-176.9024 356.6758,-171.1252 360.0158,-181.1798 365.557,-176.9024"/>
</g>
<!-- 9 -->
<g id="node10" class="node">
<title>9</title>
<path fill="#9cf2c0" stroke="#000000" d="M558.3569,-178C558.3569,-178 419.3979,-178 419.3979,-178 413.3979,-178 407.3979,-172 407.3979,-166 407.3979,-166 407.3979,-112 407.3979,-112 407.3979,-106 413.3979,-100 419.3979,-100 419.3979,-100 558.3569,-100 558.3569,-100 564.3569,-100 570.3569,-106 570.3569,-112 570.3569,-112 570.3569,-166 570.3569,-166 570.3569,-172 564.3569,-178 558.3569,-178"/>
<text text-anchor="start" x="415.3877" y="-162.8" font-family="Helvetica,sans-Serif" font-size="14.00" fill="#000000">petal length (cm) ≤ 5.45</text>
<text text-anchor="start" x="452.4863" y="-148.8" font-family="Helvetica,sans-Serif" font-size="14.00" fill="#000000">gini = 0.444</text>
<text text-anchor="start" x="450.9414" y="-134.8" font-family="Helvetica,sans-Serif" font-size="14.00" fill="#000000">samples = 3</text>
<text text-anchor="start" x="440.8174" y="-120.8" font-family="Helvetica,sans-Serif" font-size="14.00" fill="#000000">value = [0, 2, 1]</text>
<text text-anchor="start" x="435" y="-106.8" font-family="Helvetica,sans-Serif" font-size="14.00" fill="#000000">class = versicolor</text>
</g>
<!-- 7&#45;&gt;9 -->
<g id="edge9" class="edge">
<title>7&#45;&gt;9</title>
<path fill="none" stroke="#000000" d="M443.6233,-213.7677C448.8275,-205.1694 454.3945,-195.9718 459.7812,-187.072"/>
<polygon fill="#000000" stroke="#000000" points="462.904,-188.672 465.0878,-178.3046 456.9155,-185.0473 462.904,-188.672"/>
</g>
<!-- 10 -->
<g id="node11" class="node">
<title>10</title>
<path fill="#39e581" stroke="#000000" d="M469.6326,-64C469.6326,-64 370.1223,-64 370.1223,-64 364.1223,-64 358.1223,-58 358.1223,-52 358.1223,-52 358.1223,-12 358.1223,-12 358.1223,-6 364.1223,0 370.1223,0 370.1223,0 469.6326,0 469.6326,0 475.6326,0 481.6326,-6 481.6326,-12 481.6326,-12 481.6326,-52 481.6326,-52 481.6326,-58 475.6326,-64 469.6326,-64"/>
<text text-anchor="start" x="391.2725" y="-48.8" font-family="Helvetica,sans-Serif" font-size="14.00" fill="#000000">gini = 0.0</text>
<text text-anchor="start" x="381.9414" y="-34.8" font-family="Helvetica,sans-Serif" font-size="14.00" fill="#000000">samples = 2</text>
<text text-anchor="start" x="371.8174" y="-20.8" font-family="Helvetica,sans-Serif" font-size="14.00" fill="#000000">value = [0, 2, 0]</text>
<text text-anchor="start" x="366" y="-6.8" font-family="Helvetica,sans-Serif" font-size="14.00" fill="#000000">class = versicolor</text>
</g>
<!-- 9&#45;&gt;10 -->
<g id="edge10" class="edge">
<title>9&#45;&gt;10</title>
<path fill="none" stroke="#000000" d="M463.5762,-99.7647C457.9223,-90.9971 451.9128,-81.678 446.2179,-72.8469"/>
<polygon fill="#000000" stroke="#000000" points="449.0138,-70.7242 440.6528,-64.2169 443.1309,-74.5178 449.0138,-70.7242"/>
</g>
<!-- 11 -->
<g id="node12" class="node">
<title>11</title>
<path fill="#8139e5" stroke="#000000" d="M602.5807,-64C602.5807,-64 511.1741,-64 511.1741,-64 505.1741,-64 499.1741,-58 499.1741,-52 499.1741,-52 499.1741,-12 499.1741,-12 499.1741,-6 505.1741,0 511.1741,0 511.1741,0 602.5807,0 602.5807,0 608.5807,0 614.5807,-6 614.5807,-12 614.5807,-12 614.5807,-52 614.5807,-52 614.5807,-58 608.5807,-64 602.5807,-64"/>
<text text-anchor="start" x="528.2725" y="-48.8" font-family="Helvetica,sans-Serif" font-size="14.00" fill="#000000">gini = 0.0</text>
<text text-anchor="start" x="518.9414" y="-34.8" font-family="Helvetica,sans-Serif" font-size="14.00" fill="#000000">samples = 1</text>
<text text-anchor="start" x="508.8174" y="-20.8" font-family="Helvetica,sans-Serif" font-size="14.00" fill="#000000">value = [0, 0, 1]</text>
<text text-anchor="start" x="507.2759" y="-6.8" font-family="Helvetica,sans-Serif" font-size="14.00" fill="#000000">class = virginica</text>
</g>
<!-- 9&#45;&gt;11 -->
<g id="edge11" class="edge">
<title>9&#45;&gt;11</title>
<path fill="none" stroke="#000000" d="M513.812,-99.7647C519.384,-90.9971 525.3064,-81.678 530.9187,-72.8469"/>
<polygon fill="#000000" stroke="#000000" points="533.9934,-74.534 536.4032,-64.2169 528.0855,-70.7795 533.9934,-74.534"/>
</g>
<!-- 13 -->
<g id="node14" class="node">
<title>13</title>
<path fill="#c09cf2" stroke="#000000" d="M710.2193,-292C710.2193,-292 581.5356,-292 581.5356,-292 575.5356,-292 569.5356,-286 569.5356,-280 569.5356,-280 569.5356,-226 569.5356,-226 569.5356,-220 575.5356,-214 581.5356,-214 581.5356,-214 710.2193,-214 710.2193,-214 716.2193,-214 722.2193,-220 722.2193,-226 722.2193,-226 722.2193,-280 722.2193,-280 722.2193,-286 716.2193,-292 710.2193,-292"/>
<text text-anchor="start" x="577.4565" y="-276.8" font-family="Helvetica,sans-Serif" font-size="14.00" fill="#000000">sepal width (cm) ≤ 3.1</text>
<text text-anchor="start" x="609.4863" y="-262.8" font-family="Helvetica,sans-Serif" font-size="14.00" fill="#000000">gini = 0.444</text>
<text text-anchor="start" x="607.9414" y="-248.8" font-family="Helvetica,sans-Serif" font-size="14.00" fill="#000000">samples = 3</text>
<text text-anchor="start" x="597.8174" y="-234.8" font-family="Helvetica,sans-Serif" font-size="14.00" fill="#000000">value = [0, 1, 2]</text>
<text text-anchor="start" x="596.2759" y="-220.8" font-family="Helvetica,sans-Serif" font-size="14.00" fill="#000000">class = virginica</text>
</g>
<!-- 12&#45;&gt;13 -->
<g id="edge13" class="edge">
<title>12&#45;&gt;13</title>
<path fill="none" stroke="#000000" d="M645.8774,-327.7677C645.8774,-319.6172 645.8774,-310.9283 645.8774,-302.4649"/>
<polygon fill="#000000" stroke="#000000" points="649.3775,-302.3046 645.8774,-292.3046 642.3775,-302.3047 649.3775,-302.3046"/>
</g>
<!-- 16 -->
<g id="node17" class="node">
<title>16</title>
<path fill="#8139e5" stroke="#000000" d="M847.7837,-285C847.7837,-285 751.9712,-285 751.9712,-285 745.9712,-285 739.9712,-279 739.9712,-273 739.9712,-273 739.9712,-233 739.9712,-233 739.9712,-227 745.9712,-221 751.9712,-221 751.9712,-221 847.7837,-221 847.7837,-221 853.7837,-221 859.7837,-227 859.7837,-233 859.7837,-233 859.7837,-273 859.7837,-273 859.7837,-279 853.7837,-285 847.7837,-285"/>
<text text-anchor="start" x="771.2725" y="-269.8" font-family="Helvetica,sans-Serif" font-size="14.00" fill="#000000">gini = 0.0</text>
<text text-anchor="start" x="758.0483" y="-255.8" font-family="Helvetica,sans-Serif" font-size="14.00" fill="#000000">samples = 43</text>
<text text-anchor="start" x="747.9243" y="-241.8" font-family="Helvetica,sans-Serif" font-size="14.00" fill="#000000">value = [0, 0, 43]</text>
<text text-anchor="start" x="750.2759" y="-227.8" font-family="Helvetica,sans-Serif" font-size="14.00" fill="#000000">class = virginica</text>
</g>
<!-- 12&#45;&gt;16 -->
<g id="edge16" class="edge">
<title>12&#45;&gt;16</title>
<path fill="none" stroke="#000000" d="M698.8755,-327.7677C714.879,-315.9209 732.4195,-302.9364 748.3272,-291.1606"/>
<polygon fill="#000000" stroke="#000000" points="750.5252,-293.8881 756.4802,-285.1252 746.3604,-288.2619 750.5252,-293.8881"/>
</g>
<!-- 14 -->
<g id="node15" class="node">
<title>14</title>
<path fill="#8139e5" stroke="#000000" d="M691.5807,-171C691.5807,-171 600.1741,-171 600.1741,-171 594.1741,-171 588.1741,-165 588.1741,-159 588.1741,-159 588.1741,-119 588.1741,-119 588.1741,-113 594.1741,-107 600.1741,-107 600.1741,-107 691.5807,-107 691.5807,-107 697.5807,-107 703.5807,-113 703.5807,-119 703.5807,-119 703.5807,-159 703.5807,-159 703.5807,-165 697.5807,-171 691.5807,-171"/>
<text text-anchor="start" x="617.2725" y="-155.8" font-family="Helvetica,sans-Serif" font-size="14.00" fill="#000000">gini = 0.0</text>
<text text-anchor="start" x="607.9414" y="-141.8" font-family="Helvetica,sans-Serif" font-size="14.00" fill="#000000">samples = 2</text>
<text text-anchor="start" x="597.8174" y="-127.8" font-family="Helvetica,sans-Serif" font-size="14.00" fill="#000000">value = [0, 0, 2]</text>
<text text-anchor="start" x="596.2759" y="-113.8" font-family="Helvetica,sans-Serif" font-size="14.00" fill="#000000">class = virginica</text>
</g>
<!-- 13&#45;&gt;14 -->
<g id="edge14" class="edge">
<title>13&#45;&gt;14</title>
<path fill="none" stroke="#000000" d="M645.8774,-213.7677C645.8774,-203.3338 645.8774,-192.0174 645.8774,-181.4215"/>
<polygon fill="#000000" stroke="#000000" points="649.3775,-181.1252 645.8774,-171.1252 642.3775,-181.1252 649.3775,-181.1252"/>
</g>
<!-- 15 -->
<g id="node16" class="node">
<title>15</title>
<path fill="#39e581" stroke="#000000" d="M832.6326,-171C832.6326,-171 733.1223,-171 733.1223,-171 727.1223,-171 721.1223,-165 721.1223,-159 721.1223,-159 721.1223,-119 721.1223,-119 721.1223,-113 727.1223,-107 733.1223,-107 733.1223,-107 832.6326,-107 832.6326,-107 838.6326,-107 844.6326,-113 844.6326,-119 844.6326,-119 844.6326,-159 844.6326,-159 844.6326,-165 838.6326,-171 832.6326,-171"/>
<text text-anchor="start" x="754.2725" y="-155.8" font-family="Helvetica,sans-Serif" font-size="14.00" fill="#000000">gini = 0.0</text>
<text text-anchor="start" x="744.9414" y="-141.8" font-family="Helvetica,sans-Serif" font-size="14.00" fill="#000000">samples = 1</text>
<text text-anchor="start" x="734.8174" y="-127.8" font-family="Helvetica,sans-Serif" font-size="14.00" fill="#000000">value = [0, 1, 0]</text>
<text text-anchor="start" x="729" y="-113.8" font-family="Helvetica,sans-Serif" font-size="14.00" fill="#000000">class = versicolor</text>
</g>
<!-- 13&#45;&gt;15 -->
<g id="edge15" class="edge">
<title>13&#45;&gt;15</title>
<path fill="none" stroke="#000000" d="M693.0251,-213.7677C707.0008,-202.1383 722.294,-189.4125 736.2374,-177.81"/>
<polygon fill="#000000" stroke="#000000" points="738.8227,-180.2119 744.2708,-171.1252 734.3453,-174.8312 738.8227,-180.2119"/>
</g>
</g>
</svg>
